<svg width="508" height="114" viewBox="0 0 508 114" fill="none" xmlns="http://www.w3.org/2000/svg">
<path d="M0.847168 113.247L45.2175 0.11084C49.8775 11.4422 54.592 22.7735 59.2521 34.1048C48.212 60.4849 37.1719 86.8649 26.1318 113.247H0.847168Z" fill="#2D045B"/>
<path d="M0.847168 113.246H26.1238C27.1991 110.701 36.4344 89.7517 58.2554 84.8872C67.7527 82.7708 75.8881 84.5352 80.4902 85.9637C76.8716 83.0156 61.8596 71.4692 42.4981 73.9807C40.1978 74.2782 33.619 75.3228 26.1919 79.4435C11.9444 87.3522 6.00142 100.247 4.09876 104.964C3.01543 107.725 1.93049 110.485 0.847168 113.246Z" fill="#5D24E3"/>
<path d="M80.064 0.11084H45.2441L91.6991 113.247H124.435L80.064 0.11084Z" fill="#5D24E3"/>
<path d="M157.895 88.5948L171.275 40.3979H191.371L167.083 111.929H148.723L124.435 40.3979H144.531L157.895 88.5948Z" fill="#5D24E3"/>
<path d="M231.09 113.247C220.531 113.247 211.937 110.033 205.312 103.598C198.683 97.1661 195.371 88.595 195.371 77.8882V76.0332C195.371 68.8533 196.763 62.43 199.547 56.7675C202.339 51.1049 206.299 46.7441 211.421 43.685C216.551 40.6178 222.398 39.0801 228.961 39.0801C238.808 39.0801 246.559 42.1676 252.218 48.3387C257.872 54.5138 260.701 63.2599 260.701 74.585V82.3792H214.86C215.482 87.0573 217.354 90.8039 220.478 93.6229C223.61 96.4461 227.569 97.8536 232.351 97.8536C239.762 97.8536 245.556 95.185 249.728 89.8479L259.162 100.359C256.279 104.419 252.373 107.58 247.452 109.846C242.538 112.112 237.085 113.247 231.09 113.247ZM228.896 54.5545C225.084 54.5545 221.988 55.8359 219.61 58.3946C217.239 60.9452 215.72 64.6023 215.057 69.3618H241.801V67.8322C241.711 63.6016 240.561 60.331 238.346 58.0204C236.127 55.7098 232.978 54.5545 228.896 54.5545Z" fill="#5D24E3"/>
<path d="M305.155 58.9724C302.534 58.6267 300.225 58.4518 298.227 58.4518C290.955 58.4518 286.189 60.9006 283.929 65.7903V112.588H264.702V41.0573H282.865L283.405 49.5837C287.258 43.0221 292.601 39.7393 299.439 39.7393C301.568 39.7393 303.558 40.0281 305.417 40.6017L305.155 58.9724Z" fill="#5D24E3"/>
<path d="M345.136 113.247C334.577 113.247 325.983 110.033 319.358 103.598C312.729 97.1661 309.417 88.595 309.417 77.8882V76.0332C309.417 68.8533 310.809 62.43 313.593 56.7675C316.385 51.1049 320.345 46.7441 325.467 43.685C330.597 40.6178 336.444 39.0801 343.007 39.0801C352.854 39.0801 360.605 42.1676 366.264 48.3387C371.918 54.5138 374.747 63.2599 374.747 74.585V82.3792H328.906C329.528 87.0573 331.399 90.8039 334.524 93.6229C337.656 96.4461 341.615 97.8536 346.397 97.8536C353.808 97.8536 359.602 95.185 363.774 89.8479L373.208 100.359C370.325 104.419 366.419 107.58 361.498 109.846C356.584 112.112 351.131 113.247 345.136 113.247ZM342.942 54.5545C339.13 54.5545 336.034 55.8359 333.656 58.3946C331.285 60.9452 329.766 64.6023 329.103 69.3618H355.847V67.8322C355.757 63.6016 354.607 60.331 352.392 58.0204C350.172 55.7098 347.024 54.5545 342.942 54.5545Z" fill="#5D24E3"/>
<path d="M411.683 97.8536C415.228 97.8536 418.111 96.8854 420.33 94.9409C422.545 93.0005 423.696 90.4255 423.786 87.2119H441.818C441.773 92.0527 440.442 96.4868 437.821 100.522C435.209 104.558 431.631 107.69 427.078 109.911C422.533 112.132 417.513 113.247 412.01 113.247C401.725 113.247 393.606 110 387.657 103.5C381.716 97.0034 378.747 88.0255 378.747 76.5702V75.301C378.747 64.2931 381.695 55.5064 387.591 48.9407C393.495 42.367 401.594 39.0801 411.879 39.0801C420.887 39.0801 428.101 41.6307 433.531 46.7278C438.968 51.8168 441.728 58.5899 441.818 67.0512H423.786C423.696 63.3412 422.545 60.331 420.33 58.0204C418.111 55.7098 415.187 54.5545 411.552 54.5545C407.072 54.5545 403.69 56.1776 401.397 59.4197C399.113 62.6538 397.975 67.9055 397.975 75.1708V77.1559C397.975 84.523 399.105 89.8153 401.365 93.0372C403.633 96.2508 407.072 97.8536 411.683 97.8536Z" fill="#5D24E3"/>
<path d="M488.465 92.1585C488.465 89.8276 487.294 87.9888 484.961 86.6424C482.635 85.2999 478.901 84.0999 473.758 83.0463C456.635 79.4787 448.078 72.25 448.078 61.3561C448.078 55.0101 450.723 49.7137 456.021 45.4586C461.328 41.2076 468.259 39.0801 476.821 39.0801C485.96 39.0801 493.264 41.2198 498.734 45.4911C504.213 49.7665 506.956 55.3193 506.956 62.1534H487.728C487.728 59.4197 486.836 57.1661 485.059 55.3844C483.29 53.5945 480.522 52.6995 476.755 52.6995C473.513 52.6995 470.999 53.4277 469.222 54.8799C467.453 56.3363 466.568 58.1831 466.568 60.4286C466.568 62.5439 467.576 64.2525 469.598 65.5542C471.617 66.8559 475.019 67.9868 479.802 68.9387C484.592 69.8825 488.633 70.9483 491.921 72.128C502.075 75.8379 507.152 82.2571 507.152 91.3774C507.152 97.8983 504.335 103.174 498.702 107.21C493.068 111.237 485.796 113.247 476.886 113.247C470.847 113.247 465.488 112.177 460.803 110.041C456.128 107.905 452.459 104.977 449.798 101.254C447.144 97.5363 445.818 93.509 445.818 89.1807H464.046C464.218 92.5775 465.479 95.181 467.83 96.9912C470.188 98.7933 473.337 99.6923 477.279 99.6923C480.956 99.6923 483.74 99.0007 485.632 97.6095C487.52 96.2223 488.465 94.404 488.465 92.1585Z" fill="#5D24E3"/>
</svg>
