<svg width="174" height="145" viewBox="0 0 174 145" fill="none" xmlns="http://www.w3.org/2000/svg">
<path d="M0.52832 144.278L62.7025 0.446777C69.2324 14.8525 75.8386 29.2582 82.3685 43.6639C66.8986 77.2014 51.4286 110.739 35.9586 144.278H0.52832Z" fill="#2D045B"/>
<path d="M0.52832 144.278H35.7375C37.2353 140.956 50.0996 113.612 80.4953 107.263C93.7245 104.5 105.057 106.803 111.467 108.668C106.427 104.82 85.5157 89.7486 58.5461 93.0267C55.342 93.4151 46.1779 94.7785 35.8323 100.157C15.9863 110.48 7.70795 127.311 5.05763 133.469C3.54861 137.073 2.03734 140.675 0.52832 144.278Z" fill="#5D24E3"/>
<path d="M111.143 0.446777H62.3633L127.442 144.278H173.302L111.143 0.446777Z" fill="#5D24E3"/>
</svg>
